<svg height="512" viewBox="0 0 24 24" width="512" xmlns="http://www.w3.org/2000/svg"><g id="_01" data-name="01"><path d="m15 22.75a.74992.74992 0 0 1 -.64307-1.13574l1.04981-1.75a.74989.74989 0 1 1 1.28613.77148l-.27051.45117a6.2614 6.2614 0 0 0 4.82764-6.08691.75.75 0 0 1 1.5 0 7.75868 7.75868 0 0 1 -7.75 7.75z" fill="#6282c1"/><path d="m2 9.75a.7502.7502 0 0 1 -.75-.75 7.75868 7.75868 0 0 1 7.75-7.75.74992.74992 0 0 1 .64307 1.13574l-1.04981 1.75a.74989.74989 0 1 1 -1.28613-.77148l.27051-.45117a6.2614 6.2614 0 0 0 -4.82764 6.08691.7502.7502 0 0 1 -.75.75z" fill="#6282c1"/><path d="m11.03614 14.492a.71861.71861 0 0 1 -.36944.63818l-3.13677 1.69145a1.11391 1.11391 0 0 1 -1.05986 0l-3.13677-1.69145a.73552.73552 0 0 1 0-1.27589l3.13677-1.69145a1.11391 1.11391 0 0 1 1.05986 0l3.13677 1.69145a.71841.71841 0 0 1 .36944.63771z" fill="#cc392f"/><path d="m6.64514 18.52767v2.75556a.7143.7143 0 0 1 -1.03633.64006l-2.917-1.458a1.245 1.245 0 0 1 -.69181-1.11966v-2.75555a.7157.7157 0 0 1 1.0368-.64008l2.91651 1.45849a1.24326 1.24326 0 0 1 .69183 1.11918z" fill="#f7b115"/><path d="m12 16.59008v2.75555a1.245 1.245 0 0 1 -.69183 1.11964l-2.917 1.458a.71547.71547 0 0 1 -1.03633-.64006v-2.75554a1.24448 1.24448 0 0 1 .69185-1.11967l2.91651-1.458a.7157.7157 0 0 1 1.0368.64008z" fill="#c0cdea"/><path d="m21.03614 4.46329a.7186.7186 0 0 1 -.36944.63818l-3.13677 1.69145a1.11391 1.11391 0 0 1 -1.05986 0l-3.13677-1.69145a.73552.73552 0 0 1 0-1.27589l3.13677-1.69145a1.11391 1.11391 0 0 1 1.05986 0l3.13677 1.69145a.71841.71841 0 0 1 .36944.63771z" fill="#1d9b61"/><path d="m16.64514 8.499v2.75556a.7143.7143 0 0 1 -1.03633.64006l-2.917-1.458a1.245 1.245 0 0 1 -.69181-1.1197v-2.75555a.7157.7157 0 0 1 1.0368-.64006l2.91651 1.45849a1.24327 1.24327 0 0 1 .69183 1.1192z" fill="#ef7a1b"/><path d="m22 6.56137v2.75555a1.245 1.245 0 0 1 -.69183 1.11964l-2.917 1.458a.71547.71547 0 0 1 -1.03633-.64006v-2.7555a1.24449 1.24449 0 0 1 .69183-1.11963l2.91651-1.458a.7157.7157 0 0 1 1.03682.64z" fill="#c0cdea"/></g></svg>